<?xml version="1.0" encoding="UTF-8" standalone="no"?>
<svg
   xmlns:dc="http://purl.org/dc/elements/1.1/"
   xmlns:cc="http://creativecommons.org/ns#"
   xmlns:rdf="http://www.w3.org/1999/02/22-rdf-syntax-ns#"
   xmlns:svg="http://www.w3.org/2000/svg"
   xmlns="http://www.w3.org/2000/svg"
   xmlns:sodipodi="http://sodipodi.sourceforge.net/DTD/sodipodi-0.dtd"
   xmlns:inkscape="http://www.inkscape.org/namespaces/inkscape"
   viewBox="0 0 604.80 432.00"
   version="1.1"
   id="svg231"
   sodipodi:docname="ObjectsOthersLetters.svg"
   inkscape:version="0.92.3 (2405546, 2018-03-11)">
  <metadata
     id="metadata235">
    <rdf:RDF>
      <cc:Work
         rdf:about="">
        <dc:format>image/svg+xml</dc:format>
        <dc:type
           rdf:resource="http://purl.org/dc/dcmitype/StillImage" />
      </cc:Work>
    </rdf:RDF>
  </metadata>
  <sodipodi:namedview
     pagecolor="#ffffff"
     bordercolor="#666666"
     borderopacity="1"
     objecttolerance="10"
     gridtolerance="10"
     guidetolerance="10"
     inkscape:pageopacity="0"
     inkscape:pageshadow="2"
     inkscape:window-width="1378"
     inkscape:window-height="718"
     id="namedview233"
     showgrid="false"
     inkscape:zoom="1.08"
     inkscape:cx="258.98052"
     inkscape:cy="230.39899"
     inkscape:window-x="0"
     inkscape:window-y="0"
     inkscape:window-maximized="0"
     inkscape:current-layer="svg231" />
  <defs
     id="defs4">
    <style
       type="text/css"
       id="style2"><![CDATA[
    line, polyline, polygon, path, rect, circle {
      fill: none;
      stroke: #000000;
      stroke-linecap: round;
      stroke-linejoin: round;
      stroke-miterlimit: 10.00;
    }
  ]]></style>
  </defs>
  <rect
     width="100%"
     height="100%"
     style="stroke: none; fill: #FFFFFF;"
     id="rect6" />
  <defs
     id="defs11">
    <clipPath
       id="cpMC4wMHwzMDIuNDB8NDMyLjAwfDAuMDA=">
      <rect
         x="0.00"
         y="0.00"
         width="302.40"
         height="432.00"
         id="rect8" />
    </clipPath>
  </defs>
  <defs
     id="defs16">
    <clipPath
       id="cpMC4wMHw2MDQuODB8NDMyLjAwfDAuMDA=">
      <rect
         x="0.00"
         y="0.00"
         width="604.80"
         height="432.00"
         id="rect13" />
    </clipPath>
  </defs>
  <defs
     id="defs21">
    <clipPath
       id="cpNTUuNTR8Mjk1LjQzfDQwNy4zMnwyNi42MA==">
      <rect
         x="55.54"
         y="26.60"
         width="239.89"
         height="380.71"
         id="rect18" />
    </clipPath>
  </defs>
  <polyline
     points="55.54,351.56 295.43,351.56 "
     style="fill:none;stroke:#000000;stroke-width:0.75;stroke-linecap:round;stroke-linejoin:round;stroke-miterlimit:10"
     clip-path="url(#cpNTUuNTR8Mjk1LjQzfDQwNy4zMnwyNi42MA==)"
     id="polyline23"
     transform="matrix(0.94660053,0,0,1,2.9658068,0)" />
  <polyline
     points="55.54,274.64 295.43,274.64 "
     style="stroke-width: 0.75;"
     clip-path="url(#cpNTUuNTR8Mjk1LjQzfDQwNy4zMnwyNi42MA==)"
     id="polyline25" />
  <polyline
     points="55.54,197.73 295.43,197.73 "
     style="stroke-width: 0.75;"
     clip-path="url(#cpNTUuNTR8Mjk1LjQzfDQwNy4zMnwyNi42MA==)"
     id="polyline27" />
  <polyline
     points="55.54,120.82 295.43,120.82 "
     style="stroke-width: 0.75;"
     clip-path="url(#cpNTUuNTR8Mjk1LjQzfDQwNy4zMnwyNi42MA==)"
     id="polyline29" />
  <polyline
     points="55.54,43.91 295.43,43.91 "
     style="stroke-width: 0.75;"
     clip-path="url(#cpNTUuNTR8Mjk1LjQzfDQwNy4zMnwyNi42MA==)"
     id="polyline31" />
  <rect
     x="74.35"
     y="268.56"
     width="44.16"
     height="6.09"
     style="stroke-width: 1.07; stroke: none; stroke-linecap: butt; fill: #F8766D;"
     clip-path="url(#cpNTUuNTR8Mjk1LjQzfDQwNy4zMnwyNi42MA==)"
     id="rect33" />
  <rect
     x="123.42"
     y="174.80"
     width="44.16"
     height="99.85"
     style="stroke-width: 1.07; stroke: none; stroke-linecap: butt; fill: #00BFC4;"
     clip-path="url(#cpNTUuNTR8Mjk1LjQzfDQwNy4zMnwyNi42MA==)"
     id="rect35" />
  <rect
     x="183.39"
     y="129.87"
     width="44.16"
     height="144.77"
     style="stroke-width: 1.07; stroke: none; stroke-linecap: butt; fill: #F8766D;"
     clip-path="url(#cpNTUuNTR8Mjk1LjQzfDQwNy4zMnwyNi42MA==)"
     id="rect37" />
  <rect
     x="232.46"
     y="213.77"
     width="44.16"
     height="60.88"
     style="stroke-width: 1.07; stroke: none; stroke-linecap: butt; fill: #00BFC4;"
     clip-path="url(#cpNTUuNTR8Mjk1LjQzfDQwNy4zMnwyNi42MA==)"
     id="rect39" />
  <polygon
     points="91.93,282.18 100.93,282.18 100.84,282.18 101.19,282.17 101.53,282.10 101.85,281.97 102.15,281.80 102.42,281.58 102.65,281.32 102.84,281.03 102.98,280.71 103.06,280.37 103.09,280.02 103.09,280.02 103.09,269.27 103.09,269.27 103.06,268.92 102.98,268.58 102.84,268.26 102.65,267.97 102.42,267.71 102.15,267.49 101.85,267.32 101.53,267.19 101.19,267.12 100.93,267.11 91.93,267.11 92.19,267.12 91.84,267.11 91.50,267.15 91.16,267.25 90.85,267.40 90.56,267.59 90.31,267.83 90.10,268.11 89.94,268.42 89.83,268.75 89.78,269.09 89.77,269.27 89.77,280.02 89.78,279.85 89.78,280.20 89.83,280.54 89.94,280.87 90.10,281.18 90.31,281.45 90.56,281.69 90.85,281.89 91.16,282.04 91.50,282.14 91.84,282.18 "
     style="stroke-width: 0.53; fill: #FFFFFF;"
     clip-path="url(#cpNTUuNTR8Mjk1LjQzfDQwNy4zMnwyNi42MA==)"
     id="polygon41" />
  <g
     clip-path="url(#cpNTUuNTR8Mjk1LjQzfDQwNy4zMnwyNi42MA==)"
     id="g45">
    <text
       x="93.37"
       y="278.58"
       style="font-size: 11.04px; font-family: Arial;"
       textLength="6.12px"
       lengthAdjust="spacingAndGlyphs"
       id="text43">1</text>
  </g>
  <polygon
     points="141.92,282.18 149.08,282.18 148.99,282.18 149.34,282.17 149.68,282.10 150.00,281.97 150.30,281.80 150.57,281.58 150.80,281.32 150.99,281.03 151.13,280.71 151.21,280.37 151.24,280.02 151.24,280.02 151.24,269.27 151.24,269.27 151.21,268.92 151.13,268.58 150.99,268.26 150.80,267.97 150.57,267.71 150.30,267.49 150.00,267.32 149.68,267.19 149.34,267.12 149.08,267.11 141.92,267.11 142.18,267.12 141.83,267.11 141.48,267.15 141.15,267.25 140.84,267.40 140.55,267.59 140.30,267.83 140.09,268.11 139.93,268.42 139.82,268.75 139.76,269.09 139.76,269.27 139.76,280.02 139.76,279.85 139.76,280.20 139.82,280.54 139.93,280.87 140.09,281.18 140.30,281.45 140.55,281.69 140.84,281.89 141.15,282.04 141.48,282.14 141.83,282.18 "
     style="stroke-width: 0.53; fill: #FFFFFF;"
     clip-path="url(#cpNTUuNTR8Mjk1LjQzfDQwNy4zMnwyNi42MA==)"
     id="polygon47" />
  <g
     clip-path="url(#cpNTUuNTR8Mjk1LjQzfDQwNy4zMnwyNi42MA==)"
     id="g51">
    <text
       x="143.36"
       y="278.58"
       style="font-size: 11.04px; font-family: Arial;"
       textLength="4.28px"
       lengthAdjust="spacingAndGlyphs"
       id="text49">*</text>
  </g>
  <polygon
     points="197.61,282.18 213.33,282.18 213.24,282.18 213.59,282.17 213.93,282.10 214.26,281.97 214.56,281.80 214.83,281.58 215.06,281.32 215.24,281.03 215.38,280.71 215.46,280.37 215.49,280.02 215.49,280.02 215.49,269.27 215.49,269.27 215.46,268.92 215.38,268.58 215.24,268.26 215.06,267.97 214.83,267.71 214.56,267.49 214.26,267.32 213.93,267.19 213.59,267.12 213.33,267.11 197.61,267.11 197.87,267.12 197.52,267.11 197.18,267.15 196.84,267.25 196.53,267.40 196.24,267.59 195.99,267.83 195.78,268.11 195.62,268.42 195.51,268.75 195.45,269.09 195.45,269.27 195.45,280.02 195.45,279.85 195.45,280.20 195.51,280.54 195.62,280.87 195.78,281.18 195.99,281.45 196.24,281.69 196.53,281.89 196.84,282.04 197.18,282.14 197.52,282.18 "
     style="stroke-width: 0.53; fill: #FFFFFF;"
     clip-path="url(#cpNTUuNTR8Mjk1LjQzfDQwNy4zMnwyNi42MA==)"
     id="polygon53" />
  <g
     clip-path="url(#cpNTUuNTR8Mjk1LjQzfDQwNy4zMnwyNi42MA==)"
     id="g57">
    <text
       x="199.05"
       y="278.58"
       style="font-size: 11.04px; font-family: Arial;"
       textLength="12.84px"
       lengthAdjust="spacingAndGlyphs"
       id="text55">***</text>
  </g>
  <polygon
     points="242.39,282.18 266.68,282.18 266.59,282.18 266.94,282.17 267.28,282.10 267.61,281.97 267.91,281.80 268.18,281.58 268.41,281.32 268.59,281.03 268.73,280.71 268.81,280.37 268.84,280.02 268.84,280.02 268.84,269.27 268.84,269.27 268.81,268.92 268.73,268.58 268.59,268.26 268.41,267.97 268.18,267.71 267.91,267.49 267.61,267.32 267.28,267.19 266.94,267.12 266.68,267.11 242.39,267.11 242.65,267.12 242.30,267.11 241.96,267.15 241.63,267.25 241.31,267.40 241.03,267.59 240.77,267.83 240.57,268.11 240.40,268.42 240.29,268.75 240.24,269.09 240.23,269.27 240.23,280.02 240.24,279.85 240.24,280.20 240.29,280.54 240.40,280.87 240.57,281.18 240.77,281.45 241.03,281.69 241.31,281.89 241.63,282.04 241.96,282.14 242.30,282.18 "
     style="stroke-width: 0.53; fill: #FFFFFF;"
     clip-path="url(#cpNTUuNTR8Mjk1LjQzfDQwNy4zMnwyNi42MA==)"
     id="polygon59" />
  <g
     clip-path="url(#cpNTUuNTR8Mjk1LjQzfDQwNy4zMnwyNi42MA==)"
     id="g63">
    <text
       x="243.83"
       y="278.58"
       style="font-size: 11.04px; font-family: Arial;"
       textLength="21.41px"
       lengthAdjust="spacingAndGlyphs"
       id="text61">.319</text>
  </g>
  <defs
     id="defs69">
    <clipPath
       id="clipPath67">
      <rect
         x="0.00"
         y="0.00"
         width="604.80"
         height="432.00"
         id="rect65" />
    </clipPath>
  </defs>
  <polyline
     points="55.54,407.32 55.54,26.60 "
     style="stroke-width: 1.07; stroke-linecap: square;"
     clip-path="url(#cpMC4wMHw2MDQuODB8NDMyLjAwfDAuMDA=)"
     id="polyline71" />
  <g
     clip-path="url(#cpMC4wMHw2MDQuODB8NDMyLjAwfDAuMDA=)"
     id="g75">
    <text
       x="31.72"
       y="355.85"
       style="font-size: 12.00px; font-family: Arial;"
       textLength="17.34px"
       lengthAdjust="spacingAndGlyphs"
       id="text73">-20</text>
  </g>
  <g
     clip-path="url(#cpMC4wMHw2MDQuODB8NDMyLjAwfDAuMDA=)"
     id="g79">
    <text
       x="42.39"
       y="278.94"
       style="font-size: 12.00px; font-family: Arial;"
       textLength="6.67px"
       lengthAdjust="spacingAndGlyphs"
       id="text77">0</text>
  </g>
  <g
     clip-path="url(#cpMC4wMHw2MDQuODB8NDMyLjAwfDAuMDA=)"
     id="g83">
    <text
       x="35.72"
       y="202.03"
       style="font-size: 12.00px; font-family: Arial;"
       textLength="13.35px"
       lengthAdjust="spacingAndGlyphs"
       id="text81">20</text>
  </g>
  <g
     clip-path="url(#cpMC4wMHw2MDQuODB8NDMyLjAwfDAuMDA=)"
     id="g87">
    <text
       x="35.72"
       y="125.12"
       style="font-size: 12.00px; font-family: Arial;"
       textLength="13.35px"
       lengthAdjust="spacingAndGlyphs"
       id="text85">40</text>
  </g>
  <g
     clip-path="url(#cpMC4wMHw2MDQuODB8NDMyLjAwfDAuMDA=)"
     id="g91">
    <text
       x="35.72"
       y="48.21"
       style="font-size: 12.00px; font-family: Arial;"
       textLength="13.35px"
       lengthAdjust="spacingAndGlyphs"
       id="text89">60</text>
  </g>
  <polyline
     points="52.05,351.56 55.54,351.56 "
     style="stroke-width: 1.07; stroke-linecap: butt;"
     clip-path="url(#cpMC4wMHw2MDQuODB8NDMyLjAwfDAuMDA=)"
     id="polyline93" />
  <polyline
     points="52.05,274.64 55.54,274.64 "
     style="stroke-width: 1.07; stroke-linecap: butt;"
     clip-path="url(#cpMC4wMHw2MDQuODB8NDMyLjAwfDAuMDA=)"
     id="polyline95" />
  <polyline
     points="52.05,197.73 55.54,197.73 "
     style="stroke-width: 1.07; stroke-linecap: butt;"
     clip-path="url(#cpMC4wMHw2MDQuODB8NDMyLjAwfDAuMDA=)"
     id="polyline97" />
  <polyline
     points="52.05,120.82 55.54,120.82 "
     style="stroke-width: 1.07; stroke-linecap: butt;"
     clip-path="url(#cpMC4wMHw2MDQuODB8NDMyLjAwfDAuMDA=)"
     id="polyline99" />
  <polyline
     points="52.05,43.91 55.54,43.91 "
     style="stroke-width: 1.07; stroke-linecap: butt;"
     clip-path="url(#cpMC4wMHw2MDQuODB8NDMyLjAwfDAuMDA=)"
     id="polyline101" />
  <polyline
     points="55.54,407.32 295.43,407.32 "
     style="stroke-width: 1.07; stroke-linecap: square;"
     clip-path="url(#cpMC4wMHw2MDQuODB8NDMyLjAwfDAuMDA=)"
     id="polyline103" />
  <polyline
     points="120.96,410.80 120.96,407.32 "
     style="stroke-width: 1.07; stroke-linecap: butt;"
     clip-path="url(#cpMC4wMHw2MDQuODB8NDMyLjAwfDAuMDA=)"
     id="polyline105" />
  <polyline
     points="230.00,410.80 230.00,407.32 "
     style="stroke-width: 1.07; stroke-linecap: butt;"
     clip-path="url(#cpMC4wMHw2MDQuODB8NDMyLjAwfDAuMDA=)"
     id="polyline107" />
  <g
     clip-path="url(#cpMC4wMHw2MDQuODB8NDMyLjAwfDAuMDA=)"
     id="g111">
    <text
       x="110.62"
       y="422.39"
       style="font-size: 12.00px; font-family: Arial;"
       textLength="20.68px"
       lengthAdjust="spacingAndGlyphs"
       id="text109">Pos</text>
  </g>
  <g
     clip-path="url(#cpMC4wMHw2MDQuODB8NDMyLjAwfDAuMDA=)"
     id="g115">
    <text
       x="219.00"
       y="422.39"
       style="font-size: 12.00px; font-family: Arial;"
       textLength="22.01px"
       lengthAdjust="spacingAndGlyphs"
       id="text113">Neg</text>
  </g>
  <g
     clip-path="url(#cpMC4wMHw2MDQuODB8NDMyLjAwfDAuMDA=)"
     id="g119">
    <text
       transform="translate(21.47,284.65) rotate(-90)"
       style="font-size: 14.00px; font-family: Arial;"
       textLength="9.35px"
       lengthAdjust="spacingAndGlyphs"
       id="text117">Δ</text>
  </g>
  <g
     clip-path="url(#cpMC4wMHw2MDQuODB8NDMyLjAwfDAuMDA=)"
     id="g123">
    <text
       transform="translate(21.47,275.29) rotate(-90)"
       style="font-size: 14.00px; font-family: Arial;"
       textLength="126.02px"
       lengthAdjust="spacingAndGlyphs"
       id="text121"> Reaction Time (ms)</text>
  </g>
  <g
     clip-path="url(#cpMC4wMHw2MDQuODB8NDMyLjAwfDAuMDA=)"
     id="g127">
    <text
       x="119.47"
       y="18.31"
       style="font-size: 14.00px; font-weight: bold; font-family: Arial;"
       textLength="112.02px"
       lengthAdjust="spacingAndGlyphs"
       id="text125">Objects - Strings</text>
  </g>
  <defs
     id="defs132">
    <clipPath
       id="cpMjcyLjE2fDYwNC44MHw0MzIuMDB8MC4wMA==">
      <rect
         x="272.16"
         y="0.00"
         width="332.64"
         height="432.00"
         id="rect129" />
    </clipPath>
  </defs>
  <defs
     id="defs138">
    <clipPath
       id="clipPath136">
      <rect
         x="0.00"
         y="0.00"
         width="604.80"
         height="432.00"
         id="rect134" />
    </clipPath>
  </defs>
  <defs
     id="defs143">
    <clipPath
       id="cpMjgyLjYyfDUyMC4zM3w0MDcuMzJ8MjYuNjA=">
      <rect
         x="282.62"
         y="26.60"
         width="237.71"
         height="380.71"
         id="rect140" />
    </clipPath>
  </defs>
  <polyline
     points="282.62,351.56 520.33,351.56 "
     style="stroke-width: 0.75;"
     clip-path="url(#cpMjgyLjYyfDUyMC4zM3w0MDcuMzJ8MjYuNjA=)"
     id="polyline145" />
  <polyline
     points="282.62,274.64 520.33,274.64 "
     style="fill:none;stroke:#000000;stroke-width:0.75;stroke-linecap:round;stroke-linejoin:round;stroke-miterlimit:10"
     clip-path="url(#cpMjgyLjYyfDUyMC4zM3w0MDcuMzJ8MjYuNjA=)"
     id="polyline147"
     transform="matrix(0.94611081,0,0,1,28.040164,0)" />
  <polyline
     points="282.62,197.73 520.33,197.73 "
     style="fill:none;stroke:#000000;stroke-width:0.75;stroke-linecap:round;stroke-linejoin:round;stroke-miterlimit:10"
     clip-path="url(#cpMjgyLjYyfDUyMC4zM3w0MDcuMzJ8MjYuNjA=)"
     id="polyline149"
     transform="matrix(0.94611081,0,0,1,28.040164,0)" />
  <polyline
     points="282.62,120.82 520.33,120.82 "
     style="fill:none;stroke:#000000;stroke-width:0.75;stroke-linecap:round;stroke-linejoin:round;stroke-miterlimit:10"
     clip-path="url(#cpMjgyLjYyfDUyMC4zM3w0MDcuMzJ8MjYuNjA=)"
     id="polyline151"
     transform="matrix(0.94611081,0,0,1,28.040164,0)" />
  <polyline
     points="282.62,43.91 520.33,43.91 "
     style="fill:none;stroke:#000000;stroke-width:0.75;stroke-linecap:round;stroke-linejoin:round;stroke-miterlimit:10"
     clip-path="url(#cpMjgyLjYyfDUyMC4zM3w0MDcuMzJ8MjYuNjA=)"
     id="polyline153"
     transform="matrix(0.94611081,0,0,1,28.040164,0)" />
  <rect
     x="301.26"
     y="274.64"
     width="43.76"
     height="97.29"
     style="stroke-width: 1.07; stroke: none; stroke-linecap: butt; fill: #F8766D;"
     clip-path="url(#cpMjgyLjYyfDUyMC4zM3w0MDcuMzJ8MjYuNjA=)"
     id="rect155" />
  <rect
     x="349.88"
     y="113.95"
     width="43.76"
     height="160.69"
     style="stroke-width: 1.07; stroke: none; stroke-linecap: butt; fill: #00BFC4;"
     clip-path="url(#cpMjgyLjYyfDUyMC4zM3w0MDcuMzJ8MjYuNjA=)"
     id="rect157" />
  <rect
     x="409.31"
     y="52.32"
     width="43.76"
     height="222.33"
     style="stroke-width: 1.07; stroke: none; stroke-linecap: butt; fill: #F8766D;"
     clip-path="url(#cpMjgyLjYyfDUyMC4zM3w0MDcuMzJ8MjYuNjA=)"
     id="rect159" />
  <rect
     x="457.93"
     y="197.38"
     width="43.76"
     height="77.26"
     style="stroke-width: 1.07; stroke: none; stroke-linecap: butt; fill: #00BFC4;"
     clip-path="url(#cpMjgyLjYyfDUyMC4zM3w0MDcuMzJ8MjYuNjA=)"
     id="rect161" />
  <polygon
     points="317.42,282.18 328.86,282.18 328.77,282.18 329.12,282.17 329.46,282.10 329.79,281.97 330.09,281.80 330.36,281.58 330.59,281.32 330.77,281.03 330.91,280.71 330.99,280.37 331.02,280.02 331.02,280.02 331.02,269.27 331.02,269.27 330.99,268.92 330.91,268.58 330.77,268.26 330.59,267.97 330.36,267.71 330.09,267.49 329.79,267.32 329.46,267.19 329.12,267.12 328.86,267.11 317.42,267.11 317.68,267.12 317.33,267.11 316.99,267.15 316.65,267.25 316.34,267.40 316.05,267.59 315.80,267.83 315.59,268.11 315.43,268.42 315.32,268.75 315.27,269.09 315.26,269.27 315.26,280.02 315.27,279.85 315.27,280.20 315.32,280.54 315.43,280.87 315.59,281.18 315.80,281.45 316.05,281.69 316.34,281.89 316.65,282.04 316.99,282.14 317.33,282.18 "
     style="stroke-width: 0.53; fill: #FFFFFF;"
     clip-path="url(#cpMjgyLjYyfDUyMC4zM3w0MDcuMzJ8MjYuNjA=)"
     id="polygon163" />
  <g
     clip-path="url(#cpMjgyLjYyfDUyMC4zM3w0MDcuMzJ8MjYuNjA=)"
     id="g167">
    <text
       x="318.86"
       y="278.58"
       style="font-size: 11.04px; font-family: Arial;"
       textLength="8.56px"
       lengthAdjust="spacingAndGlyphs"
       id="text165">**</text>
  </g>
  <polygon
     points="363.90,282.18 379.62,282.18 379.54,282.18 379.88,282.17 380.22,282.10 380.55,281.97 380.85,281.80 381.12,281.58 381.35,281.32 381.53,281.03 381.67,280.71 381.75,280.37 381.78,280.02 381.78,280.02 381.78,269.27 381.78,269.27 381.75,268.92 381.67,268.58 381.53,268.26 381.35,267.97 381.12,267.71 380.85,267.49 380.55,267.32 380.22,267.19 379.88,267.12 379.62,267.11 363.90,267.11 364.16,267.12 363.81,267.11 363.47,267.15 363.13,267.25 362.82,267.40 362.53,267.59 362.28,267.83 362.07,268.11 361.91,268.42 361.80,268.75 361.75,269.09 361.74,269.27 361.74,280.02 361.75,279.85 361.75,280.20 361.80,280.54 361.91,280.87 362.07,281.18 362.28,281.45 362.53,281.69 362.82,281.89 363.13,282.04 363.47,282.14 363.81,282.18 "
     style="stroke-width: 0.53; fill: #FFFFFF;"
     clip-path="url(#cpMjgyLjYyfDUyMC4zM3w0MDcuMzJ8MjYuNjA=)"
     id="polygon169" />
  <g
     clip-path="url(#cpMjgyLjYyfDUyMC4zM3w0MDcuMzJ8MjYuNjA=)"
     id="g173">
    <text
       x="365.34"
       y="278.58"
       style="font-size: 11.04px; font-family: Arial;"
       textLength="12.84px"
       lengthAdjust="spacingAndGlyphs"
       id="text171">***</text>
  </g>
  <polygon
     points="423.33,282.18 439.05,282.18 438.96,282.18 439.31,282.17 439.65,282.10 439.98,281.97 440.28,281.80 440.55,281.58 440.78,281.32 440.96,281.03 441.10,280.71 441.18,280.37 441.21,280.02 441.21,280.02 441.21,269.27 441.21,269.27 441.18,268.92 441.10,268.58 440.96,268.26 440.78,267.97 440.55,267.71 440.28,267.49 439.98,267.32 439.65,267.19 439.31,267.12 439.05,267.11 423.33,267.11 423.59,267.12 423.24,267.11 422.90,267.15 422.56,267.25 422.25,267.40 421.96,267.59 421.71,267.83 421.50,268.11 421.34,268.42 421.23,268.75 421.17,269.09 421.17,269.27 421.17,280.02 421.17,279.85 421.17,280.20 421.23,280.54 421.34,280.87 421.50,281.18 421.71,281.45 421.96,281.69 422.25,281.89 422.56,282.04 422.90,282.14 423.24,282.18 "
     style="stroke-width: 0.53; fill: #FFFFFF;"
     clip-path="url(#cpMjgyLjYyfDUyMC4zM3w0MDcuMzJ8MjYuNjA=)"
     id="polygon175" />
  <g
     clip-path="url(#cpMjgyLjYyfDUyMC4zM3w0MDcuMzJ8MjYuNjA=)"
     id="g179">
    <text
       x="424.77"
       y="278.58"
       style="font-size: 11.04px; font-family: Arial;"
       textLength="12.84px"
       lengthAdjust="spacingAndGlyphs"
       id="text177">***</text>
  </g>
  <polygon
     points="464.61,282.18 495.01,282.18 494.93,282.18 495.27,282.17 495.61,282.10 495.94,281.97 496.24,281.80 496.51,281.58 496.74,281.32 496.93,281.03 497.06,280.71 497.15,280.37 497.17,280.02 497.17,280.02 497.17,269.27 497.17,269.27 497.15,268.92 497.06,268.58 496.93,268.26 496.74,267.97 496.51,267.71 496.24,267.49 495.94,267.32 495.61,267.19 495.27,267.12 495.01,267.11 464.61,267.11 464.87,267.12 464.52,267.11 464.17,267.15 463.84,267.25 463.53,267.40 463.24,267.59 462.99,267.83 462.78,268.11 462.62,268.42 462.51,268.75 462.45,269.09 462.45,269.27 462.45,280.02 462.45,279.85 462.45,280.20 462.51,280.54 462.62,280.87 462.78,281.18 462.99,281.45 463.24,281.69 463.53,281.89 463.84,282.04 464.17,282.14 464.52,282.18 "
     style="stroke-width: 0.53; fill: #FFFFFF;"
     clip-path="url(#cpMjgyLjYyfDUyMC4zM3w0MDcuMzJ8MjYuNjA=)"
     id="polygon181" />
  <g
     clip-path="url(#cpMjgyLjYyfDUyMC4zM3w0MDcuMzJ8MjYuNjA=)"
     id="g185">
    <text
       x="466.05"
       y="278.58"
       style="font-size: 11.04px; font-family: Arial;"
       textLength="27.53px"
       lengthAdjust="spacingAndGlyphs"
       id="text183">.0898</text>
  </g>
  <defs
     id="defs191">
    <clipPath
       id="clipPath189">
      <rect
         x="0.00"
         y="0.00"
         width="604.80"
         height="432.00"
         id="rect187" />
    </clipPath>
  </defs>
  <polyline
     points="282.62,407.32 520.33,407.32 "
     style="fill:none;stroke:#000000;stroke-width:1.07000005;stroke-linecap:square;stroke-linejoin:round;stroke-miterlimit:10"
     clip-path="url(#cpMC4wMHw2MDQuODB8NDMyLjAwfDAuMDA=)"
     id="polyline193"
     transform="matrix(0.94611081,0,0,1,28.040164,0)" />
  <polyline
     points="347.45,410.80 347.45,407.32 "
     style="stroke-width: 1.07; stroke-linecap: butt;"
     clip-path="url(#cpMC4wMHw2MDQuODB8NDMyLjAwfDAuMDA=)"
     id="polyline195" />
  <polyline
     points="455.50,410.80 455.50,407.32 "
     style="stroke-width: 1.07; stroke-linecap: butt;"
     clip-path="url(#cpMC4wMHw2MDQuODB8NDMyLjAwfDAuMDA=)"
     id="polyline197" />
  <g
     clip-path="url(#cpMC4wMHw2MDQuODB8NDMyLjAwfDAuMDA=)"
     id="g201">
    <text
       x="337.11"
       y="422.39"
       style="font-size: 12.00px; font-family: Arial;"
       textLength="20.68px"
       lengthAdjust="spacingAndGlyphs"
       id="text199">Pos</text>
  </g>
  <g
     clip-path="url(#cpMC4wMHw2MDQuODB8NDMyLjAwfDAuMDA=)"
     id="g205">
    <text
       x="444.49"
       y="422.39"
       style="font-size: 12.00px; font-family: Arial;"
       textLength="22.01px"
       lengthAdjust="spacingAndGlyphs"
       id="text203">Neg</text>
  </g>
  <g
     clip-path="url(#cpMC4wMHw2MDQuODB8NDMyLjAwfDAuMDA=)"
     id="g209">
    <text
       x="541.25"
       y="196.52"
       style="font-size: 14.00px; font-family: Arial;"
       textLength="40.46px"
       lengthAdjust="spacingAndGlyphs"
       id="text207">Target</text>
  </g>
  <g
     clip-path="url(#cpMC4wMHw2MDQuODB8NDMyLjAwfDAuMDA=)"
     id="g213">
    <text
       x="541.25"
       y="211.64"
       style="font-size: 14.00px; font-family: Arial;"
       textLength="50.59px"
       lengthAdjust="spacingAndGlyphs"
       id="text211">Valence</text>
  </g>
  <rect
     x="541.96"
     y="220.66"
     width="12.98"
     height="12.98"
     style="stroke-width: 1.07; stroke: none; stroke-linejoin: miter; fill: #F8766D;"
     clip-path="url(#cpMC4wMHw2MDQuODB8NDMyLjAwfDAuMDA=)"
     id="rect215" />
  <rect
     x="541.96"
     y="235.06"
     width="12.98"
     height="12.98"
     style="stroke-width: 1.07; stroke: none; stroke-linejoin: miter; fill: #00BFC4;"
     clip-path="url(#cpMC4wMHw2MDQuODB8NDMyLjAwfDAuMDA=)"
     id="rect217" />
  <g
     clip-path="url(#cpMC4wMHw2MDQuODB8NDMyLjAwfDAuMDA=)"
     id="g221">
    <text
       x="562.62"
       y="231.45"
       style="font-size: 12.00px; font-family: Arial;"
       textLength="20.68px"
       lengthAdjust="spacingAndGlyphs"
       id="text219">Pos</text>
  </g>
  <g
     clip-path="url(#cpMC4wMHw2MDQuODB8NDMyLjAwfDAuMDA=)"
     id="g225">
    <text
       x="562.62"
       y="245.85"
       style="font-size: 12.00px; font-family: Arial;"
       textLength="22.01px"
       lengthAdjust="spacingAndGlyphs"
       id="text223">Neg</text>
  </g>
  <g
     clip-path="url(#cpMC4wMHw2MDQuODB8NDMyLjAwfDAuMDA=)"
     id="g229">
    <text
       x="348.58"
       y="18.31"
       style="font-size: 14.00px; font-weight: bold; font-family: Arial;"
       textLength="105.79px"
       lengthAdjust="spacingAndGlyphs"
       id="text227">Others - Strings</text>
  </g>
</svg>
